<?xml version="1.0" encoding="utf-8"?>
<!-- Generator: Adobe Illustrator 22.0.0, SVG Export Plug-In . SVG Version: 6.00 Build 0)  -->
<svg version="1.1" id="Capa_1" xmlns="http://www.w3.org/2000/svg" xmlns:xlink="http://www.w3.org/1999/xlink" x="0px" y="0px"
	 viewBox="0 0 3832.5 2023.7" style="enable-background:new 0 0 3832.5 2023.7;" xml:space="preserve">
<style type="text/css">
	.st0{fill:#AF9856;}
	.st1{fill:#FFFFFF;}
</style>
<path class="st0" d="M1433.5,1078.2c-33.6,26.4-68.1,57.1-125.2,57.1c-62.8,0-133.5-22.4-134.3-109.2l0.8-130.4h68.8v104.4
	c0,50,28.7,76,85.1,76c46,0,83.7-35.5,104.8-60.3l-0.4-120h68.4v53.1c33.6-26.4,68.1-57.1,125.2-57.1c62.8,0,133.5,22.4,134.3,109.2
	l-0.8,130.4h-68.8V1027c0-50-28.7-76-85.1-76c-46,0-83.7,35.5-104.8,60.3v120h-68.4L1433.5,1078.2z"/>
<path class="st0" d="M918.4,911.8V983h200v60.8h-200v87.6h-72v-280h296v60.4H918.4z"/>
<path class="st0" d="M2106.2,1071v60.4h-288v-280h72V1071H2106.2z"/>
<path class="st0" d="M2236,1131.4h-72v-280h72V1131.4z"/>
<path class="st0" d="M2367.7,911.8V983h200v60.8h-200v87.6h-72v-280h296v60.4H2367.7z"/>
<path class="st0" d="M2697.2,906.6v56.8h200.1v52h-200.1v56.8h224v57.2h-296v-280h296v57.2H2697.2z"/>
<g>
	<g>
		<path class="st0" d="M3038.1,1097.2h-7.7v13.3h-14.2v-50.1h22.9c4.5,0,8.5,0.8,11.8,2.3c3.3,1.5,5.9,3.7,7.7,6.4
			c1.8,2.8,2.7,6.1,2.7,9.8c0,3.6-0.8,6.8-2.5,9.5c-1.7,2.7-4.1,4.8-7.3,6.3l10.8,15.8h-15.2L3038.1,1097.2z M3044.8,1073.5
			c-1.5-1.3-3.7-1.9-6.6-1.9h-7.9v14.7h7.9c2.9,0,5.1-0.6,6.6-1.9c1.5-1.3,2.2-3.1,2.2-5.4C3047,1076.6,3046.3,1074.8,3044.8,1073.5
			z"/>
	</g>
	<path class="st0" d="M3092.5,1087.1c0,30.5-24.7,55.2-55.2,55.2s-55.2-24.7-55.2-55.2c0-30.5,24.7-55.2,55.2-55.2
		S3092.5,1056.6,3092.5,1087.1z M3037.3,1044.8c-23.4,0-42.3,18.9-42.3,42.3c0,23.4,18.9,42.3,42.3,42.3s42.3-18.9,42.3-42.3
		C3079.6,1063.7,3060.7,1044.8,3037.3,1044.8z"/>
</g>
<g>
	<path class="st0" d="M868.6,1227.8h-21.8v-15.9h63.6v15.9h-21.7v55.1h-20.1V1227.8z"/>
	<path class="st0" d="M975.3,1264.1h-11v18.9h-20.1v-71h32.5c6.4,0,12,1.1,16.7,3.2c4.7,2.1,8.4,5.2,11,9.1c2.6,4,3.9,8.6,3.9,14
		c0,5.1-1.2,9.6-3.6,13.4c-2.4,3.8-5.8,6.8-10.3,9l15.3,22.3h-21.5L975.3,1264.1z M984.8,1230.5c-2.1-1.8-5.2-2.7-9.3-2.7h-11.2
		v20.8h11.2c4.1,0,7.2-0.9,9.3-2.7c2.1-1.8,3.1-4.3,3.1-7.7C988,1234.9,986.9,1232.3,984.8,1230.5z"/>
	<path class="st0" d="M1093.2,1269.2h-30l-5.6,13.8h-20.5l31.4-71h19.8l31.5,71h-20.9L1093.2,1269.2z M1087.3,1254.3l-9.1-22.7
		l-9.1,22.7H1087.3z"/>
	<path class="st0" d="M1219.7,1211.9l-30.4,71h-19.8l-30.3-71h21.7l19.3,46.3l19.7-46.3H1219.7z"/>
	<path class="st0" d="M1307.2,1267.4v15.5h-57v-71h55.7v15.5h-35.8v12h31.6v15h-31.6v13H1307.2z"/>
	<path class="st0" d="M1344.7,1211.9h20.1v55.1h33.9v15.9h-54V1211.9z"/>
	<path class="st0" d="M1536.3,1269.2h-30l-5.6,13.8h-20.5l31.4-71h19.8l31.5,71h-20.9L1536.3,1269.2z M1530.4,1254.3l-9.1-22.7
		l-9.1,22.7H1530.4z"/>
	<path class="st0" d="M1662.3,1211.9v71h-16.5l-31.4-37.9v37.9h-19.7v-71h16.5l31.4,37.9v-37.9H1662.3z"/>
	<path class="st0" d="M1702.8,1211.9h33.6c7.8,0,14.7,1.5,20.7,4.4c6,2.9,10.7,7,14,12.4c3.3,5.3,5,11.6,5,18.8
		c0,7.2-1.7,13.4-5,18.8c-3.3,5.3-8,9.5-14,12.4c-6,2.9-12.9,4.4-20.7,4.4h-33.6V1211.9z M1735.6,1266.9c6.1,0,11-1.7,14.7-5.2
		c3.7-3.5,5.5-8.2,5.5-14.3c0-6.1-1.8-10.9-5.5-14.3c-3.7-3.5-8.6-5.2-14.7-5.2h-12.7v39H1735.6z"/>
	<path class="st0" d="M1925.7,1267.4v15.5h-57v-71h55.7v15.5h-35.8v12h31.6v15h-31.6v13H1925.7z"/>
	<path class="st0" d="M2034.2,1211.9l-30.4,71H1984l-30.3-71h21.7l19.3,46.3l19.7-46.3H2034.2z"/>
	<path class="st0" d="M2121.7,1267.4v15.5h-57v-71h55.7v15.5h-35.8v12h31.6v15h-31.6v13H2121.7z"/>
	<path class="st0" d="M2226.7,1211.9v71h-16.5l-31.4-37.9v37.9h-19.7v-71h16.5l31.4,37.9v-37.9H2226.7z"/>
	<path class="st0" d="M2282.3,1227.8h-21.8v-15.9h63.6v15.9h-21.7v55.1h-20.1V1227.8z"/>
	<path class="st0" d="M2365.9,1282.2c-5.4-1.4-9.8-3.3-13.2-5.7l6.6-14.8c3.2,2.1,6.9,3.8,11.1,5.1c4.2,1.3,8.3,1.9,12.4,1.9
		c7.7,0,11.6-1.9,11.6-5.8c0-2-1.1-3.5-3.3-4.5c-2.2-1-5.7-2-10.6-3.1c-5.3-1.1-9.8-2.4-13.4-3.7c-3.6-1.3-6.7-3.4-9.2-6.3
		c-2.6-2.9-3.9-6.8-3.9-11.8c0-4.3,1.2-8.2,3.6-11.7c2.4-3.5,5.9-6.2,10.6-8.3c4.7-2,10.5-3,17.3-3c4.7,0,9.3,0.5,13.8,1.6
		c4.5,1,8.5,2.6,12,4.6l-6.2,14.9c-6.8-3.7-13.3-5.5-19.7-5.5c-4,0-6.9,0.6-8.7,1.8c-1.8,1.2-2.7,2.7-2.7,4.6c0,1.9,1.1,3.3,3.2,4.3
		c2.2,1,5.6,1.9,10.5,2.9c5.4,1.2,9.9,2.4,13.4,3.7c3.6,1.3,6.6,3.4,9.2,6.3c2.6,2.9,3.9,6.8,3.9,11.7c0,4.3-1.2,8.1-3.6,11.6
		c-2.4,3.5-5.9,6.2-10.7,8.3c-4.7,2.1-10.5,3.1-17.3,3.1C2376.9,1284.4,2371.3,1283.7,2365.9,1282.2z"/>
	<path class="st0" d="M2553.1,1269.2h-30l-5.6,13.8h-20.5l31.4-71h19.8l31.5,71h-20.9L2553.1,1269.2z M2547.2,1254.3l-9.1-22.7
		l-9.1,22.7H2547.2z"/>
	<path class="st0" d="M2658.1,1245.9h17.8v29.4c-4.1,2.9-8.7,5.1-14,6.7c-5.3,1.6-10.6,2.3-15.8,2.3c-7.4,0-14.1-1.6-20.1-4.7
		c-6-3.1-10.6-7.5-14-13.1c-3.4-5.6-5.1-12-5.1-19.1c0-7.1,1.7-13.5,5.1-19.1c3.4-5.6,8.1-10,14.1-13.1c6-3.1,12.8-4.7,20.4-4.7
		c6.6,0,12.6,1.1,17.9,3.3c5.3,2.2,9.7,5.4,13.2,9.6l-12.8,11.6c-4.8-5.3-10.6-7.9-17.2-7.9c-6.1,0-11,1.8-14.7,5.5
		c-3.7,3.7-5.6,8.6-5.6,14.8c0,3.9,0.8,7.4,2.5,10.5c1.7,3.1,4.1,5.5,7.1,7.2s6.5,2.6,10.5,2.6c3.9,0,7.5-0.8,10.9-2.3V1245.9z"/>
	<path class="st0" d="M2771.9,1267.4v15.5h-57v-71h55.7v15.5h-35.8v12h31.6v15h-31.6v13H2771.9z"/>
	<path class="st0" d="M2877,1211.9v71h-16.5l-31.4-37.9v37.9h-19.7v-71h16.5l31.4,37.9v-37.9H2877z"/>
	<path class="st0" d="M2932.8,1279.7c-5.9-3.1-10.6-7.5-14-13.1c-3.4-5.6-5.1-12-5.1-19.1c0-7.1,1.7-13.5,5.1-19.1
		c3.4-5.6,8-10,14-13.1c5.9-3.1,12.6-4.7,20-4.7c6.5,0,12.3,1.1,17.6,3.5c5.2,2.3,9.5,5.6,13,9.9l-12.8,11.6
		c-4.6-5.5-10.2-8.3-16.7-8.3c-3.9,0-7.3,0.8-10.3,2.5c-3,1.7-5.3,4.1-7,7.2c-1.7,3.1-2.5,6.6-2.5,10.6c0,4,0.8,7.5,2.5,10.6
		c1.7,3.1,4,5.5,7,7.2c3,1.7,6.4,2.5,10.3,2.5c6.6,0,12.1-2.8,16.7-8.3l12.8,11.6c-3.5,4.3-7.8,7.6-13,9.9
		c-5.2,2.3-11.1,3.5-17.6,3.5C2945.4,1284.4,2938.7,1282.8,2932.8,1279.7z"/>
	<path class="st0" d="M3056.4,1257.5v25.5h-20.1v-25.8l-27.1-45.3h21.2l16.8,28.2l16.8-28.2h19.5L3056.4,1257.5z"/>
</g>
</svg>
