<svg id="Capa_1" data-name="Capa 1" xmlns="http://www.w3.org/2000/svg" viewBox="0 0 1648 688"><defs><style>.cls-1{fill:#b99951;}</style></defs><title>gold logo with gold stars_JHv2</title><polygon class="cls-1" points="68.4 417.61 68.4 471.01 218.38 471.01 218.38 516.6 68.4 516.6 68.4 582.29 14.41 582.29 14.41 372.32 236.38 372.32 236.38 417.61 68.4 417.61"/><polygon class="cls-1" points="959.24 537 959.24 582.29 743.27 582.29 743.27 372.32 797.27 372.32 797.27 537 959.24 537"/><rect class="cls-1" x="1002.62" y="372.32" width="53.99" height="209.98"/><polygon class="cls-1" points="1155.38 417.61 1155.38 471.01 1305.36 471.01 1305.36 516.6 1155.38 516.6 1155.38 582.29 1101.38 582.29 1101.38 372.32 1323.36 372.32 1323.36 417.61 1155.38 417.61"/><polygon class="cls-1" points="1402.5 413.72 1402.5 456.32 1552.57 456.32 1552.57 495.31 1402.5 495.31 1402.5 537.91 1570.48 537.91 1570.48 580.8 1348.51 580.8 1348.51 370.83 1570.48 370.83 1570.48 413.72 1402.5 413.72"/><path class="cls-1" d="M836.21,103.84c-48,4.09-86.4,40.33-91.83,90.21-2.13-23.93-11.1-44.83-27.8-62.14s-37.22-27-61.9-29.86c53.46-8.49,83.71-38.9,91.91-90,2.24,43,36.68,85.75,89.62,91.78"/><path class="cls-1" d="M937.44,253.6c-33.59,5.79-53.25,25.12-59.6,58.39-5.62-33.66-25.11-53.32-58.39-59.74,33.44-5.5,53.12-24.84,59.73-58.2,5.69,33.38,24.94,53,58.26,59.55"/><path class="cls-1" d="M607.06,194.11c6.61,33.43,26.45,52.47,59.76,58.11-33.37,6.55-52.48,26.43-58.2,59.56-2.38-15.16-8.64-28.37-19.68-39.08s-24.45-16.77-39.83-18.62c32.94-6.56,52.16-26.29,57.95-60"/><path class="cls-1" d="M1613.07,563.5h-3.16v5.34h-5.8v-20.1h9.37a11.79,11.79,0,0,1,4.83.91,6.82,6.82,0,0,1,4.28,6.53,6.92,6.92,0,0,1-1,3.8,7,7,0,0,1-3,2.54l4.43,6.32h-6.21Zm2.75-9.5a4,4,0,0,0-2.69-.78h-3.22v5.89h3.22a4.07,4.07,0,0,0,2.69-.77,2.63,2.63,0,0,0,.91-2.16,2.68,2.68,0,0,0-.91-2.18"/><path class="cls-1" d="M1635.33,559.43a22.57,22.57,0,1,1-22.56-22.13,22.35,22.35,0,0,1,22.56,22.13m-22.56-16.95a17,17,0,1,0,17.28,16.95,17.12,17.12,0,0,0-17.28-16.95"/><polygon class="cls-1" points="29.6 627.21 14.39 627.21 14.39 616.1 58.74 616.1 58.74 627.21 43.6 627.21 43.6 665.62 29.6 665.62 29.6 627.21"/><path class="cls-1" d="M104,652.46H96.31v13.16h-14V616.1h22.63a28.17,28.17,0,0,1,11.68,2.23,17.31,17.31,0,0,1,7.64,6.36,17.5,17.5,0,0,1,2.69,9.73,17.22,17.22,0,0,1-2.52,9.38,17,17,0,0,1-7.18,6.26l10.68,15.56h-15Zm6.65-23.41c-1.47-1.28-3.64-1.91-6.51-1.91H96.31v14.5h7.78q4.3,0,6.51-1.88a6.65,6.65,0,0,0,2.19-5.34,6.74,6.74,0,0,0-2.19-5.37"/><path class="cls-1" d="M186.14,656H165.2l-3.89,9.62H147l21.85-49.52h13.8l21.93,49.52H190ZM182,645.67l-6.37-15.84-6.36,15.84Z"/><polygon class="cls-1" points="274.35 616.1 253.13 665.62 239.34 665.62 218.19 616.1 233.33 616.1 246.77 648.36 260.49 616.1 274.35 616.1"/><polygon class="cls-1" points="335.33 654.8 335.33 665.62 295.58 665.62 295.58 616.1 334.41 616.1 334.41 626.93 309.44 626.93 309.44 635.27 331.44 635.27 331.44 645.74 309.44 645.74 309.44 654.8 335.33 654.8"/><polygon class="cls-1" points="361.43 616.1 375.44 616.1 375.44 654.51 399.07 654.51 399.07 665.62 361.43 665.62 361.43 616.1"/><path class="cls-1" d="M495,656H474.05l-3.89,9.62H455.87l21.86-49.52h13.79l21.93,49.52H498.88Zm-4.11-10.33-6.36-15.84-6.37,15.84Z"/><polygon class="cls-1" points="582.85 616.1 582.85 665.62 571.32 665.62 549.45 639.23 549.45 665.62 535.73 665.62 535.73 616.1 547.26 616.1 569.12 642.49 569.12 616.1 582.85 616.1"/><path class="cls-1" d="M611.07,616.1h23.41a32.84,32.84,0,0,1,14.43,3,22.89,22.89,0,0,1,9.76,8.64,26.41,26.41,0,0,1,0,26.17,22.87,22.87,0,0,1-9.76,8.63,32.7,32.7,0,0,1-14.43,3H611.07Zm22.85,38.34q6.36,0,10.22-3.6t3.85-10q0-6.36-3.85-10t-10.22-3.61h-8.84v27.16Z"/><polygon class="cls-1" points="766.48 654.8 766.48 665.62 726.73 665.62 726.73 616.1 765.56 616.1 765.56 626.93 740.59 626.93 740.59 635.27 762.59 635.27 762.59 645.74 740.59 645.74 740.59 654.8 766.48 654.8"/><polygon class="cls-1" points="842.1 616.1 820.88 665.62 807.09 665.62 785.93 616.1 801.07 616.1 814.51 648.36 828.24 616.1 842.1 616.1"/><polygon class="cls-1" points="903.08 654.8 903.08 665.62 863.32 665.62 863.32 616.1 902.16 616.1 902.16 626.93 877.19 626.93 877.19 635.27 899.19 635.27 899.19 645.74 877.19 645.74 877.19 654.8 903.08 654.8"/><polygon class="cls-1" points="976.29 616.1 976.29 665.62 964.76 665.62 942.9 639.23 942.9 665.62 929.18 665.62 929.18 616.1 940.71 616.1 962.57 642.49 962.57 616.1 976.29 616.1"/><polygon class="cls-1" points="1015.06 627.21 999.85 627.21 999.85 616.1 1044.2 616.1 1044.2 627.21 1029.06 627.21 1029.06 665.62 1015.06 665.62 1015.06 627.21"/><path class="cls-1" d="M1073.34,665.12a28.5,28.5,0,0,1-9.19-4l4.6-10.32a31.49,31.49,0,0,0,16.34,4.88q8.06,0,8.06-4a3.34,3.34,0,0,0-2.3-3.15,41.08,41.08,0,0,0-7.39-2.16,70.14,70.14,0,0,1-9.34-2.58,15.75,15.75,0,0,1-6.43-4.42,11.93,11.93,0,0,1-2.69-8.21,14.2,14.2,0,0,1,2.47-8.17,16.61,16.61,0,0,1,7.4-5.77,30.46,30.46,0,0,1,12.06-2.12,42.63,42.63,0,0,1,9.62,1.1,29.17,29.17,0,0,1,8.34,3.22l-4.31,10.4a28.8,28.8,0,0,0-13.72-3.82c-2.79,0-4.81.41-6.09,1.23a3.73,3.73,0,0,0-1.91,3.22,3.2,3.2,0,0,0,2.27,3,40.23,40.23,0,0,0,7.28,2.05,69.29,69.29,0,0,1,9.38,2.59,16.2,16.2,0,0,1,6.43,4.38,11.71,11.71,0,0,1,2.73,8.17,13.94,13.94,0,0,1-2.48,8.07,16.93,16.93,0,0,1-7.43,5.76,30,30,0,0,1-12,2.16,45.45,45.45,0,0,1-11.68-1.49"/><path class="cls-1" d="M1203.79,656h-20.94l-3.89,9.62h-14.29l21.86-49.52h13.79l21.93,49.52h-14.57Zm-4.11-10.33-6.36-15.84L1187,645.67Z"/><path class="cls-1" d="M1277,639.8h12.38v20.51a32.1,32.1,0,0,1-9.76,4.67,38.7,38.7,0,0,1-11,1.63,29.54,29.54,0,0,1-14-3.29,24.51,24.51,0,0,1-9.77-9.16,26.82,26.82,0,0,1,0-26.6,24.45,24.45,0,0,1,9.84-9.16,30.24,30.24,0,0,1,14.22-3.29,31.62,31.62,0,0,1,12.45,2.34,23.9,23.9,0,0,1,9.19,6.72l-8.91,8.06a15.72,15.72,0,0,0-12-5.52,13.93,13.93,0,0,0-10.25,3.86q-3.9,3.85-3.9,10.29a14.93,14.93,0,0,0,1.77,7.32,12.74,12.74,0,0,0,5,5,14.59,14.59,0,0,0,7.29,1.8,17.82,17.82,0,0,0,7.57-1.63Z"/><polygon class="cls-1" points="1356.37 654.8 1356.37 665.62 1316.62 665.62 1316.62 616.1 1355.45 616.1 1355.45 626.93 1330.48 626.93 1330.48 635.27 1352.48 635.27 1352.48 645.74 1330.48 645.74 1330.48 654.8 1356.37 654.8"/><polygon class="cls-1" points="1429.59 616.1 1429.59 665.62 1418.06 665.62 1396.2 639.23 1396.2 665.62 1382.48 665.62 1382.48 616.1 1394 616.1 1415.86 642.49 1415.86 616.1 1429.59 616.1"/><path class="cls-1" d="M1468.53,663.32a24.54,24.54,0,0,1-9.73-9.16,26.75,26.75,0,0,1,0-26.6,24.54,24.54,0,0,1,9.73-9.16,29.31,29.31,0,0,1,14-3.29,29.94,29.94,0,0,1,12.24,2.41,23.59,23.59,0,0,1,9,6.93l-8.92,8.06q-4.8-5.79-11.67-5.8a14.42,14.42,0,0,0-7.18,1.77,12.34,12.34,0,0,0-4.88,5,16.65,16.65,0,0,0,0,14.78,12.34,12.34,0,0,0,4.88,5,14.42,14.42,0,0,0,7.18,1.77,14.63,14.63,0,0,0,11.67-5.8l8.92,8.06a23.72,23.72,0,0,1-9,6.94,30.11,30.11,0,0,1-12.24,2.4,29.31,29.31,0,0,1-14-3.29"/><polygon class="cls-1" points="1554.65 647.87 1554.65 665.62 1540.65 665.62 1540.65 647.65 1521.76 616.1 1536.54 616.1 1548.29 635.77 1560.03 616.1 1573.61 616.1 1554.65 647.87"/><path class="cls-1" d="M454.73,542.45c-25.2,19.79-51,42.85-93.93,42.85-47.1,0-100.14-16.8-100.75-81.9l.61-97.78h51.59v78.29c0,37.49,21.55,57,63.84,57,34.5,0,62.74-26.65,78.64-45.25l-.27-90h51.3v39.85c25.2-19.8,51-42.85,93.93-42.85,47.09,0,100.14,16.8,100.74,81.89l-.6,97.79H648.24V504c0-37.5-21.55-57-63.84-57-34.5,0-62.74,26.65-78.64,45.25v90h-51.3Z"/></svg>