<?xml version="1.0" standalone="no"?>
<!DOCTYPE svg PUBLIC "-//W3C//DTD SVG 20010904//EN"
 "http://www.w3.org/TR/2001/REC-SVG-20010904/DTD/svg10.dtd">
<svg version="1.0" xmlns="http://www.w3.org/2000/svg"
 width="700.000000pt" height="700.000000pt" viewBox="0 0 700.000000 700.000000"
 preserveAspectRatio="xMidYMid meet">
<metadata>
Created by potrace 1.14, written by Peter Selinger 2001-2017
</metadata>
<g transform="translate(0.000000,700.000000) scale(0.100000,-0.100000)"
fill="#000000" stroke="none">
<path d="M0 3500 l0 -3500 3500 0 3500 0 0 3500 0 3500 -3500 0 -3500 0 0
-3500z m3545 2236 c135 -528 580 -947 1127 -1060 43 -9 87 -16 100 -17 13 -1
-30 -12 -95 -24 -381 -76 -688 -262 -909 -552 -141 -184 -242 -417 -281 -648
l-14 -80 -7 45 c-4 25 -14 81 -23 125 -91 470 -434 881 -881 1056 -105 41
-291 89 -346 89 -52 0 -15 15 94 39 227 50 448 144 613 262 107 76 256 230
326 335 111 167 192 372 242 609 l13 60 8 -70 c4 -38 19 -115 33 -169z m-2051
-2501 c73 -290 245 -511 491 -633 70 -35 222 -86 320 -108 l30 -7 -40 -9
c-330 -77 -565 -253 -695 -522 -47 -97 -100 -255 -100 -299 0 -37 -16 -5 -29
58 -33 158 -133 338 -256 460 -147 148 -305 229 -550 281 -27 5 -23 8 40 24
296 76 511 237 639 481 49 91 100 236 111 313 9 58 16 51 39 -39z m3956 56 c0
-38 52 -199 90 -278 136 -286 357 -453 715 -539 28 -6 25 -8 -32 -20 -403 -86
-676 -342 -776 -730 -12 -46 -24 -84 -27 -84 -3 0 -12 28 -19 62 -20 100 -77
246 -128 332 -52 86 -179 223 -255 274 -102 70 -252 132 -408 170 -34 8 -33 9
45 26 375 83 628 315 744 679 17 53 31 106 31 118 0 11 5 17 10 14 6 -3 10
-14 10 -24z"/>
</g>
</svg>
