<?xml version="1.0" encoding="utf-8"?>
<!-- Generator: Adobe Illustrator 22.0.0, SVG Export Plug-In . SVG Version: 6.00 Build 0)  -->
<svg version="1.1" id="Capa_1" xmlns="http://www.w3.org/2000/svg" xmlns:xlink="http://www.w3.org/1999/xlink" x="0px" y="0px"
	 viewBox="0 0 3832.5 2023.7" style="enable-background:new 0 0 3832.5 2023.7;" xml:space="preserve">
<style type="text/css">
	.st0{fill:#FFFFFF;}
	.st1{fill:#B69657;}
	.st2{fill:#C2C3C9;}
</style>
<path d="M874.7,843.4v71.2h200v60.8h-200v87.6h-72V783h296v60.4H874.7z"/>
<path d="M2062.4,1002.6v60.4h-288V783h72v219.6H2062.4z"/>
<path d="M2192.3,1063h-72V783h72V1063z"/>
<path d="M2324,843.4v71.2h200v60.8h-200v87.6h-72V783h296v60.4H2324z"/>
<path d="M2653.5,838.2V895h200.1v52h-200.1v56.8h224v57.2h-296V781h296v57.2H2653.5z"/>
<g>
	<g>
		<path d="M2994.3,1028.8h-7.7v13.3h-14.2V992h22.9c4.5,0,8.5,0.8,11.8,2.3c3.3,1.5,5.9,3.7,7.7,6.4c1.8,2.8,2.7,6.1,2.7,9.8
			c0,3.6-0.8,6.8-2.5,9.5c-1.7,2.7-4.1,4.8-7.3,6.3l10.8,15.8h-15.2L2994.3,1028.8z M3001,1005.1c-1.5-1.3-3.7-1.9-6.6-1.9h-7.9
			v14.7h7.9c2.9,0,5.1-0.6,6.6-1.9c1.5-1.3,2.2-3.1,2.2-5.4S3002.5,1006.4,3001,1005.1z"/>
	</g>
	<path d="M3048.8,1018.7c0,30.5-24.7,55.2-55.2,55.2s-55.2-24.7-55.2-55.2c0-30.5,24.7-55.2,55.2-55.2S3048.8,988.2,3048.8,1018.7z
		 M2993.6,976.4c-23.4,0-42.3,18.9-42.3,42.3s18.9,42.3,42.3,42.3c23.4,0,42.3-18.9,42.3-42.3S3016.9,976.4,2993.6,976.4z"/>
</g>
<g>
	<path d="M824.9,1159.5h-21.8v-15.9h63.6v15.9H845v55.1h-20.1V1159.5z"/>
	<path d="M931.5,1195.7h-11v18.9h-20.1v-71H933c6.4,0,12,1.1,16.7,3.2c4.7,2.1,8.4,5.2,11,9.1c2.6,4,3.9,8.6,3.9,14
		c0,5.1-1.2,9.6-3.6,13.4c-2.4,3.8-5.8,6.8-10.3,9l15.3,22.3h-21.5L931.5,1195.7z M941.1,1162.1c-2.1-1.8-5.2-2.7-9.3-2.7h-11.2
		v20.8h11.2c4.1,0,7.2-0.9,9.3-2.7c2.1-1.8,3.1-4.3,3.1-7.7C944.2,1166.5,943.2,1163.9,941.1,1162.1z"/>
	<path d="M1049.5,1200.8h-30l-5.6,13.8h-20.5l31.4-71h19.8l31.5,71H1055L1049.5,1200.8z M1043.6,1186l-9.1-22.7l-9.1,22.7H1043.6z"
		/>
	<path d="M1176,1143.5l-30.4,71h-19.8l-30.3-71h21.7l19.3,46.3l19.7-46.3H1176z"/>
	<path d="M1263.5,1199.1v15.5h-57v-71h55.7v15.5h-35.8v12h31.6v15h-31.6v13H1263.5z"/>
	<path d="M1300.9,1143.5h20.1v55.1h33.9v15.9h-54V1143.5z"/>
	<path d="M1492.5,1200.8h-30l-5.6,13.8h-20.5l31.4-71h19.8l31.5,71h-20.9L1492.5,1200.8z M1486.6,1186l-9.1-22.7l-9.1,22.7H1486.6z"
		/>
	<path d="M1618.5,1143.5v71H1602l-31.4-37.9v37.9H1551v-71h16.5l31.4,37.9v-37.9H1618.5z"/>
	<path d="M1659,1143.5h33.6c7.8,0,14.7,1.5,20.7,4.4c6,2.9,10.7,7,14,12.4c3.3,5.3,5,11.6,5,18.8s-1.7,13.4-5,18.8
		c-3.3,5.3-8,9.5-14,12.4c-6,2.9-12.9,4.4-20.7,4.4H1659V1143.5z M1691.8,1198.6c6.1,0,11-1.7,14.7-5.2c3.7-3.5,5.5-8.2,5.5-14.3
		c0-6.1-1.8-10.9-5.5-14.3c-3.7-3.5-8.6-5.2-14.7-5.2h-12.7v39H1691.8z"/>
	<path d="M1882,1199.1v15.5h-57v-71h55.7v15.5h-35.8v12h31.6v15h-31.6v13H1882z"/>
	<path d="M1990.5,1143.5l-30.4,71h-19.8l-30.3-71h21.7l19.3,46.3l19.7-46.3H1990.5z"/>
	<path d="M2077.9,1199.1v15.5h-57v-71h55.7v15.5h-35.8v12h31.6v15h-31.6v13H2077.9z"/>
	<path d="M2183,1143.5v71h-16.5l-31.4-37.9v37.9h-19.7v-71h16.5l31.4,37.9v-37.9H2183z"/>
	<path d="M2238.6,1159.5h-21.8v-15.9h63.6v15.9h-21.7v55.1h-20.1V1159.5z"/>
	<path d="M2322.2,1213.9c-5.4-1.4-9.8-3.3-13.2-5.7l6.6-14.8c3.2,2.1,6.9,3.8,11.1,5.1c4.2,1.3,8.3,1.9,12.4,1.9
		c7.7,0,11.6-1.9,11.6-5.8c0-2-1.1-3.5-3.3-4.5c-2.2-1-5.7-2-10.6-3.1c-5.3-1.1-9.8-2.4-13.4-3.7c-3.6-1.3-6.7-3.4-9.2-6.3
		c-2.6-2.9-3.9-6.8-3.9-11.8c0-4.3,1.2-8.2,3.6-11.7c2.4-3.5,5.9-6.2,10.6-8.3c4.7-2,10.5-3,17.3-3c4.7,0,9.3,0.5,13.8,1.6
		c4.5,1,8.5,2.6,12,4.6l-6.2,14.9c-6.8-3.7-13.3-5.5-19.7-5.5c-4,0-6.9,0.6-8.7,1.8c-1.8,1.2-2.7,2.7-2.7,4.6s1.1,3.3,3.2,4.3
		c2.2,1,5.6,1.9,10.5,2.9c5.4,1.2,9.9,2.4,13.4,3.7c3.6,1.3,6.6,3.4,9.2,6.3c2.6,2.9,3.9,6.8,3.9,11.7c0,4.3-1.2,8.1-3.6,11.6
		c-2.4,3.5-5.9,6.2-10.7,8.3c-4.7,2.1-10.5,3.1-17.3,3.1C2333.2,1216,2327.6,1215.3,2322.2,1213.9z"/>
	<path d="M2509.3,1200.8h-30l-5.6,13.8h-20.5l31.4-71h19.8l31.5,71h-20.9L2509.3,1200.8z M2503.4,1186l-9.1-22.7l-9.1,22.7H2503.4z"
		/>
	<path d="M2614.3,1177.5h17.8v29.4c-4.1,2.9-8.7,5.1-14,6.7s-10.6,2.3-15.8,2.3c-7.4,0-14.1-1.6-20.1-4.7c-6-3.1-10.6-7.5-14-13.1
		c-3.4-5.6-5.1-12-5.1-19.1c0-7.1,1.7-13.5,5.1-19.1c3.4-5.6,8.1-10,14.1-13.1c6-3.1,12.8-4.7,20.4-4.7c6.6,0,12.6,1.1,17.9,3.3
		c5.3,2.2,9.7,5.4,13.2,9.6l-12.8,11.6c-4.8-5.3-10.6-7.9-17.2-7.9c-6.1,0-11,1.8-14.7,5.5c-3.7,3.7-5.6,8.6-5.6,14.8
		c0,3.9,0.8,7.4,2.5,10.5c1.7,3.1,4.1,5.5,7.1,7.2c3,1.7,6.5,2.6,10.5,2.6c3.9,0,7.5-0.8,10.9-2.3V1177.5z"/>
	<path d="M2728.2,1199.1v15.5h-57v-71h55.7v15.5h-35.8v12h31.6v15h-31.6v13H2728.2z"/>
	<path d="M2833.2,1143.5v71h-16.5l-31.4-37.9v37.9h-19.7v-71h16.5l31.4,37.9v-37.9H2833.2z"/>
	<path d="M2889.1,1211.3c-5.9-3.1-10.6-7.5-14-13.1c-3.4-5.6-5.1-12-5.1-19.1c0-7.1,1.7-13.5,5.1-19.1c3.4-5.6,8-10,14-13.1
		c5.9-3.1,12.6-4.7,20-4.7c6.5,0,12.3,1.1,17.6,3.5c5.2,2.3,9.5,5.6,13,9.9l-12.8,11.6c-4.6-5.5-10.2-8.3-16.7-8.3
		c-3.9,0-7.3,0.8-10.3,2.5c-3,1.7-5.3,4.1-7,7.2c-1.7,3.1-2.5,6.6-2.5,10.6c0,4,0.8,7.5,2.5,10.6c1.7,3.1,4,5.5,7,7.2
		c3,1.7,6.4,2.5,10.3,2.5c6.6,0,12.1-2.8,16.7-8.3l12.8,11.6c-3.5,4.3-7.8,7.6-13,9.9c-5.2,2.3-11.1,3.5-17.6,3.5
		C2901.7,1216,2895,1214.4,2889.1,1211.3z"/>
	<path d="M3012.6,1189.1v25.5h-20.1v-25.8l-27.1-45.3h21.2l16.8,28.2l16.8-28.2h19.5L3012.6,1189.1z"/>
</g>
<path d="M1389.8,1009.8c-33.6,26.4-68.1,57.1-125.2,57.1c-62.8,0-133.5-22.4-134.3-109.2l0.8-130.4h68.8v104.4c0,50,28.7,76,85.1,76
	c46,0,83.7-35.5,104.8-60.3l-0.4-120h68.4v53.1c33.6-26.4,68.1-57.1,125.2-57.1c62.8,0,133.5,22.4,134.3,109.2l-0.8,130.4h-68.8
	V958.6c0-50-28.7-76-85.1-76c-46,0-83.7,35.5-104.8,60.3v120h-68.4L1389.8,1009.8z"/>
</svg>
