<?xml version="1.0" encoding="utf-8"?>
<!-- Generator: Adobe Illustrator 22.0.0, SVG Export Plug-In . SVG Version: 6.00 Build 0)  -->
<svg version="1.1" id="Capa_1" xmlns="http://www.w3.org/2000/svg" xmlns:xlink="http://www.w3.org/1999/xlink" x="0px" y="0px"
	 viewBox="0 0 1700.8 1700.8" style="enable-background:new 0 0 1700.8 1700.8;" xml:space="preserve">
<style type="text/css">
	.st0{fill:#AF9856;}
	.st1{fill:#FFFFFF;}
</style>
<path class="st0" d="M1125.5,579.7c-146.3,12.5-263.6,123-280.2,275.2c-6.5-73-33.9-136.8-84.8-189.6
	c-50.9-52.8-113.6-82.3-188.9-91.1C734.7,548.3,827,455.5,852.1,299.6C858.9,430.8,964,561.3,1125.5,579.7z"/>
<path class="st0" d="M1305.5,1036.6c-102.5,17.7-162.5,76.7-181.8,178.2c-17.1-102.7-76.6-162.7-178.2-182.3
	c102-16.8,162.1-75.8,182.3-177.6C1145.1,956.7,1203.8,1016.5,1305.5,1036.6z"/>
<path class="st0" d="M573.5,1035.2c17.6,102.5,76.6,162.1,177.7,181.9c-102.3,17.3-162.1,76.5-182.2,177.1
	c-6.1-46.4-24.1-87.2-57-120.7c-32.9-33.7-73.2-53.1-120-59.9C493,1196.1,553.2,1137.5,573.5,1035.2z"/>
</svg>
