<?xml version="1.0" encoding="utf-8"?>
<!-- Generator: Adobe Illustrator 22.0.0, SVG Export Plug-In . SVG Version: 6.00 Build 0)  -->
<svg version="1.1" id="Capa_1" xmlns="http://www.w3.org/2000/svg" xmlns:xlink="http://www.w3.org/1999/xlink" x="0px" y="0px"
	 viewBox="0 0 3832 2023.7" style="enable-background:new 0 0 3832 2023.7;" xml:space="preserve">
<style type="text/css">
	.st0{fill:#FFFFFF;}
	.st1{fill:#B69657;}
	.st2{fill:#C2C3C9;}
</style>
<path class="st0" d="M917.9,998.5v71.2h200v60.8h-200v87.6h-72v-280h296v60.4H917.9z"/>
<path class="st0" d="M2105.7,1157.7v60.4h-288v-280h72v219.6H2105.7z"/>
<path class="st0" d="M2235.6,1218.1h-72v-280h72V1218.1z"/>
<path class="st0" d="M2367.2,998.5v71.2h200v60.8h-200v87.6h-72v-280h296v60.4H2367.2z"/>
<path class="st0" d="M2696.7,993.3v56.8h200.1v52h-200.1v56.8h224v57.2h-296v-280h296v57.2H2696.7z"/>
<path class="st0" d="M1941.7,580.1c-63.9,5.4-115.2,53.8-122.4,120.3c-2.8-31.9-14.8-59.8-37.1-82.9c-22.2-23.1-49.6-36-82.5-39.8
	c71.3-11.3,111.6-51.9,122.6-120C1825.2,515.1,1871.1,572.1,1941.7,580.1z"/>
<path class="st0" d="M2020.3,779.8c-44.8,7.7-71,33.5-79.5,77.9c-7.5-44.9-33.5-71.1-77.9-79.7c44.6-7.3,70.8-33.1,79.6-77.6
	C1950.3,744.9,1975.9,771.1,2020.3,779.8z"/>
<path class="st0" d="M1700.5,779.2c7.7,44.8,33.5,70.8,77.7,79.5c-44.7,7.6-70.8,33.4-79.6,77.4c-2.7-20.3-10.5-38.1-24.9-52.8
	c-14.4-14.7-32-23.2-52.4-26.2C1665.3,849.5,1691.6,823.9,1700.5,779.2z"/>
<g>
	<g>
		<path class="st0" d="M3037.6,1183.9h-7.7v13.3h-14.2v-50.1h22.9c4.5,0,8.5,0.8,11.8,2.3c3.3,1.5,5.9,3.7,7.7,6.4
			c1.8,2.8,2.7,6.1,2.7,9.8c0,3.6-0.8,6.8-2.5,9.5c-1.7,2.7-4.1,4.8-7.3,6.3l10.8,15.8h-15.2L3037.6,1183.9z M3044.3,1160.2
			c-1.5-1.3-3.7-1.9-6.6-1.9h-7.9v14.7h7.9c2.9,0,5.1-0.6,6.6-1.9c1.5-1.3,2.2-3.1,2.2-5.4S3045.8,1161.5,3044.3,1160.2z"/>
	</g>
	<path class="st0" d="M3092.1,1173.8c0,30.5-24.7,55.2-55.2,55.2s-55.2-24.7-55.2-55.2s24.7-55.2,55.2-55.2
		S3092.1,1143.3,3092.1,1173.8z M3036.9,1131.5c-23.4,0-42.3,18.9-42.3,42.3c0,23.4,18.9,42.3,42.3,42.3c23.4,0,42.3-18.9,42.3-42.3
		C3079.1,1150.4,3060.2,1131.5,3036.9,1131.5z"/>
</g>
<g>
	<path class="st0" d="M868.2,1314.6h-21.8v-15.9H910v15.9h-21.7v55.1h-20.1V1314.6z"/>
	<path class="st0" d="M974.8,1350.8h-11v18.9h-20.1v-71h32.5c6.4,0,12,1.1,16.7,3.2c4.7,2.1,8.4,5.2,11,9.1c2.6,4,3.9,8.6,3.9,14
		c0,5.1-1.2,9.6-3.6,13.4c-2.4,3.8-5.8,6.8-10.3,9l15.3,22.3h-21.5L974.8,1350.8z M984.4,1317.2c-2.1-1.8-5.2-2.7-9.3-2.7h-11.2
		v20.8H975c4.1,0,7.2-0.9,9.3-2.7c2.1-1.8,3.1-4.3,3.1-7.7C987.5,1321.6,986.5,1319,984.4,1317.2z"/>
	<path class="st0" d="M1092.7,1355.9h-30l-5.6,13.8h-20.5l31.4-71h19.8l31.5,71h-20.9L1092.7,1355.9z M1086.9,1341.1l-9.1-22.7
		l-9.1,22.7H1086.9z"/>
	<path class="st0" d="M1219.3,1298.6l-30.4,71h-19.8l-30.3-71h21.7l19.3,46.3l19.7-46.3H1219.3z"/>
	<path class="st0" d="M1306.8,1354.1v15.5h-57v-71h55.7v15.5h-35.8v12h31.6v15h-31.6v13H1306.8z"/>
	<path class="st0" d="M1344.2,1298.6h20.1v55.1h33.9v15.9h-54V1298.6z"/>
	<path class="st0" d="M1535.8,1355.9h-30l-5.6,13.8h-20.5l31.4-71h19.8l31.5,71h-20.9L1535.8,1355.9z M1529.9,1341.1l-9.1-22.7
		l-9.1,22.7H1529.9z"/>
	<path class="st0" d="M1661.8,1298.6v71h-16.5l-31.4-37.9v37.9h-19.7v-71h16.5l31.4,37.9v-37.9H1661.8z"/>
	<path class="st0" d="M1702.3,1298.6h33.6c7.8,0,14.7,1.5,20.7,4.4c6,2.9,10.7,7,14,12.4c3.3,5.3,5,11.6,5,18.8s-1.7,13.4-5,18.8
		c-3.3,5.3-8,9.5-14,12.4c-6,2.9-12.9,4.4-20.7,4.4h-33.6V1298.6z M1735.1,1353.6c6.1,0,11-1.7,14.7-5.2c3.7-3.5,5.5-8.2,5.5-14.3
		c0-6.1-1.8-10.9-5.5-14.3c-3.7-3.5-8.6-5.2-14.7-5.2h-12.7v39H1735.1z"/>
	<path class="st0" d="M1925.3,1354.1v15.5h-57v-71h55.7v15.5h-35.8v12h31.6v15h-31.6v13H1925.3z"/>
	<path class="st0" d="M2033.7,1298.6l-30.4,71h-19.8l-30.3-71h21.7l19.3,46.3l19.7-46.3H2033.7z"/>
	<path class="st0" d="M2121.2,1354.1v15.5h-57v-71h55.7v15.5h-35.8v12h31.6v15h-31.6v13H2121.2z"/>
	<path class="st0" d="M2226.2,1298.6v71h-16.5l-31.4-37.9v37.9h-19.7v-71h16.5l31.4,37.9v-37.9H2226.2z"/>
	<path class="st0" d="M2281.9,1314.6H2260v-15.9h63.6v15.9h-21.7v55.1h-20.1V1314.6z"/>
	<path class="st0" d="M2365.5,1369c-5.4-1.4-9.8-3.3-13.2-5.7l6.6-14.8c3.2,2.1,6.9,3.8,11.1,5.1c4.2,1.3,8.3,1.9,12.4,1.9
		c7.7,0,11.6-1.9,11.6-5.8c0-2-1.1-3.5-3.3-4.5c-2.2-1-5.7-2-10.6-3.1c-5.3-1.1-9.8-2.4-13.4-3.7c-3.6-1.3-6.7-3.4-9.2-6.3
		c-2.6-2.9-3.9-6.8-3.9-11.8c0-4.3,1.2-8.2,3.6-11.7c2.4-3.5,5.9-6.2,10.6-8.3c4.7-2,10.5-3,17.3-3c4.7,0,9.3,0.5,13.8,1.6
		c4.5,1,8.5,2.6,12,4.6l-6.2,14.9c-6.8-3.7-13.3-5.5-19.7-5.5c-4,0-6.9,0.6-8.7,1.8c-1.8,1.2-2.7,2.7-2.7,4.6s1.1,3.3,3.2,4.3
		c2.2,1,5.6,1.9,10.5,2.9c5.4,1.2,9.9,2.4,13.4,3.7c3.6,1.3,6.6,3.4,9.2,6.3c2.6,2.9,3.9,6.8,3.9,11.7c0,4.3-1.2,8.1-3.6,11.6
		c-2.4,3.5-5.9,6.2-10.7,8.3c-4.7,2.1-10.5,3.1-17.3,3.1C2376.5,1371.1,2370.9,1370.4,2365.5,1369z"/>
	<path class="st0" d="M2552.6,1355.9h-30l-5.6,13.8h-20.5l31.4-71h19.8l31.5,71h-20.9L2552.6,1355.9z M2546.7,1341.1l-9.1-22.7
		l-9.1,22.7H2546.7z"/>
	<path class="st0" d="M2657.6,1332.6h17.8v29.4c-4.1,2.9-8.7,5.1-14,6.7s-10.6,2.3-15.8,2.3c-7.4,0-14.1-1.6-20.1-4.7
		c-6-3.1-10.6-7.5-14-13.1c-3.4-5.6-5.1-12-5.1-19.1c0-7.1,1.7-13.5,5.1-19.1c3.4-5.6,8.1-10,14.1-13.1c6-3.1,12.8-4.7,20.4-4.7
		c6.6,0,12.6,1.1,17.9,3.3s9.7,5.4,13.2,9.6l-12.8,11.6c-4.8-5.3-10.6-7.9-17.2-7.9c-6.1,0-11,1.8-14.7,5.5
		c-3.7,3.7-5.6,8.6-5.6,14.8c0,3.9,0.8,7.4,2.5,10.5c1.7,3.1,4.1,5.5,7.1,7.2c3,1.7,6.5,2.6,10.5,2.6c3.9,0,7.5-0.8,10.9-2.3V1332.6
		z"/>
	<path class="st0" d="M2771.5,1354.1v15.5h-57v-71h55.7v15.5h-35.8v12h31.6v15h-31.6v13H2771.5z"/>
	<path class="st0" d="M2876.5,1298.6v71H2860l-31.4-37.9v37.9h-19.7v-71h16.5l31.4,37.9v-37.9H2876.5z"/>
	<path class="st0" d="M2932.4,1366.4c-5.9-3.1-10.6-7.5-14-13.1c-3.4-5.6-5.1-12-5.1-19.1c0-7.1,1.7-13.5,5.1-19.1
		c3.4-5.6,8-10,14-13.1c5.9-3.1,12.6-4.7,20-4.7c6.5,0,12.3,1.1,17.6,3.5c5.2,2.3,9.5,5.6,13,9.9l-12.8,11.6
		c-4.6-5.5-10.2-8.3-16.7-8.3c-3.9,0-7.3,0.8-10.3,2.5c-3,1.7-5.3,4.1-7,7.2c-1.7,3.1-2.5,6.6-2.5,10.6c0,4,0.8,7.5,2.5,10.6
		c1.7,3.1,4,5.5,7,7.2c3,1.7,6.4,2.5,10.3,2.5c6.6,0,12.1-2.8,16.7-8.3l12.8,11.6c-3.5,4.3-7.8,7.6-13,9.9
		c-5.2,2.3-11.1,3.5-17.6,3.5C2945,1371.1,2938.3,1369.5,2932.4,1366.4z"/>
	<path class="st0" d="M3055.9,1344.2v25.5h-20.1v-25.8l-27.1-45.3h21.2l16.8,28.2l16.8-28.2h19.5L3055.9,1344.2z"/>
</g>
<path class="st0" d="M1433,1164.9c-33.6,26.4-68.1,57.1-125.2,57.1c-62.8,0-133.5-22.4-134.3-109.2l0.8-130.4h68.8v104.4
	c0,50,28.7,76,85.1,76c46,0,83.7-35.5,104.8-60.3l-0.4-120h68.4v53.1c33.6-26.4,68.1-57.1,125.2-57.1c62.8,0,133.5,22.4,134.3,109.2
	l-0.8,130.4h-68.8v-104.4c0-50-28.7-76-85.1-76c-46,0-83.7,35.5-104.8,60.3v120h-68.4L1433,1164.9z"/>
</svg>
